<?xml version="1.0" encoding="iso-8859-1"?>
<!-- Generator: Adobe Illustrator 23.0.6, SVG Export Plug-In . SVG Version: 6.00 Build 0)  -->
<svg version="1.1" baseProfile="basic" id="&#x421;&#x43B;&#x43E;&#x439;_1"
	 xmlns="http://www.w3.org/2000/svg" xmlns:xlink="http://www.w3.org/1999/xlink" x="0px" y="0px" viewBox="0 0 50 50"
	 xml:space="preserve">
<path d="M37.864,9c0.733,0,1.241,0.366,1.538,0.674c0.5,0.517,0.773,1.233,0.748,1.963c-0.079,2.33,0.005,5.7,0.854,8.524
	c0.78,2.596,2.007,4.049,3.279,4.839c-1.271,0.79-2.498,2.244-3.279,4.839c-0.849,2.824-0.933,6.194-0.854,8.524
	c0.025,0.73-0.248,1.445-0.748,1.963C39.105,40.634,38.597,41,37.864,41H12.139c-0.733,0-1.241-0.366-1.538-0.674
	c-0.5-0.517-0.773-1.233-0.748-1.963c0.079-2.33-0.005-5.7-0.854-8.524c-0.78-2.595-2.008-4.049-3.28-4.839
	c1.272-0.79,2.5-2.244,3.28-4.839c0.849-2.824,0.933-6.194,0.854-8.524c-0.025-0.73,0.248-1.446,0.748-1.963
	C10.898,9.366,11.406,9,12.139,9H37.864 M37.864,7H12.139c-2.511,0-4.368,2.257-4.285,4.705c0.08,2.351-0.024,5.397-0.771,7.88
	C6.335,22.076,5.068,23.651,3,23.853v2.294c2.068,0.202,3.335,1.777,4.083,4.268c0.747,2.483,0.85,5.529,0.771,7.88
	C7.771,40.743,9.628,43,12.139,43h25.726c2.511,0,4.368-2.257,4.285-4.705c-0.08-2.351,0.024-5.397,0.77-7.88
	c0.749-2.491,2.012-4.066,4.08-4.268v-2.294c-2.068-0.202-3.331-1.777-4.08-4.268c-0.747-2.483-0.85-5.529-0.77-7.88
	C42.232,9.257,40.375,7,37.864,7L37.864,7z"/>
<path d="M27.79,24.451v-0.029c1.911-0.33,3.402-2.121,3.402-4.094c0-1.395-0.536-2.576-1.551-3.416
	c-1.011-0.837-2.431-1.28-4.105-1.28h-7.669v18.734h7.709c2.003,0,3.666-0.489,4.808-1.415c1.144-0.927,1.749-2.276,1.749-3.901
	C32.133,26.596,30.389,24.752,27.79,24.451z M24.199,23.568h-3.28v-5.484h3.903c2.141,0,3.32,0.939,3.32,2.645
	C28.141,22.56,26.741,23.568,24.199,23.568z M20.919,25.864h3.876c2.8,0,4.22,1.012,4.22,3.007c0,1.993-1.4,3.046-4.048,3.046
	h-4.048V25.864z"/>
</svg>