<?xml version="1.0" encoding="iso-8859-1"?>
<!-- Generator: Adobe Illustrator 25.2.3, SVG Export Plug-In . SVG Version: 6.00 Build 0)  -->
<svg version="1.1" baseProfile="basic" id="fluent" xmlns="http://www.w3.org/2000/svg" xmlns:xlink="http://www.w3.org/1999/xlink"
	 x="0px" y="0px" viewBox="0 0 50 50" xml:space="preserve">
<polygon style="fill:none;stroke:#000000;stroke-width:2;stroke-miterlimit:10;" points="8,35 25,44 42,35 42,15 25,6 8,15 "/>
<polygon style="fill:none;stroke:#000000;stroke-width:2;stroke-miterlimit:10;" points="8,35 42,35 25,6 "/>
<path d="M42,39c-2.212,0-4-1.788-4-4s1.788-4,4-4c2.212,0,4,1.788,4,4C46,37.201,44.212,39,42,39"/>
<path d="M42,19c-2.212,0-4-1.788-4-4s1.788-4,4-4c2.212,0,4,1.788,4,4C46,17.201,44.212,19,42,19"/>
<path d="M8,39c-2.212,0-4-1.799-4-4c0-2.212,1.788-4,4-4s4,1.788,4,4S10.212,39,8,39"/>
<path d="M8,19c-2.212,0-4-1.799-4-4c0-2.212,1.788-4,4-4s4,1.788,4,4S10.212,19,8,19"/>
<path d="M25,10c-2.212,0-4-1.788-4-4s1.788-4,4-4s4,1.788,4,4C29,8.201,27.212,10,25,10"/>
<path d="M25,48c-2.212,0-4-1.788-4-4s1.788-4,4-4s4,1.788,4,4C29,46.201,27.212,48,25,48"/>
</svg>